<svg xmlns="http://www.w3.org/2000/svg" viewBox="0 0 960 160" preserveAspectRatio="xMidYMid meet" style="font-family: Arial;"><g transform="translate(120,5)" width="835" height="150"><g class="y axis"><g class="tick" transform="translate(0,150)" style="opacity: 1;"><line x2="835" y2="0" style="stroke: rgb(204, 204, 204);"/><text dy=".32em" x="-3" y="0" class="y axis break" style="text-anchor: end; font-size: 8px;">0</text></g><g class="tick" transform="translate(0,135)" style="opacity: 1;"><line x2="835" y2="0" style="stroke: rgb(204, 204, 204);"/><text dy=".32em" x="-3" y="0" class="y axis break" style="text-anchor: end; font-size: 8px;">0.1</text></g><g class="tick" transform="translate(0,120)" style="opacity: 1;"><line x2="835" y2="0" style="stroke: rgb(204, 204, 204);"/><text dy=".32em" x="-3" y="0" class="y axis break" style="text-anchor: end; font-size: 8px;">0.2</text></g><g class="tick" transform="translate(0,105)" style="opacity: 1;"><line x2="835" y2="0" style="stroke: rgb(204, 204, 204);"/><text dy=".32em" x="-3" y="0" class="y axis break" style="text-anchor: end; font-size: 8px;">0.3</text></g><g class="tick" transform="translate(0,90)" style="opacity: 1;"><line x2="835" y2="0" style="stroke: rgb(204, 204, 204);"/><text dy=".32em" x="-3" y="0" class="y axis break" style="text-anchor: end; font-size: 8px;">0.4</text></g><g class="tick" transform="translate(0,75)" style="opacity: 1;"><line x2="835" y2="0" style="stroke: rgb(204, 204, 204);"/><text dy=".32em" x="-3" y="0" class="y axis break" style="text-anchor: end; font-size: 8px;">0.5</text></g><g class="tick" transform="translate(0,60)" style="opacity: 1;"><line x2="835" y2="0" style="stroke: rgb(204, 204, 204);"/><text dy=".32em" x="-3" y="0" class="y axis break" style="text-anchor: end; font-size: 8px;">0.6</text></g><g class="tick" transform="translate(0,45.00000000000001)" style="opacity: 1;"><line x2="835" y2="0" style="stroke: rgb(204, 204, 204);"/><text dy=".32em" x="-3" y="0" class="y axis break" style="text-anchor: end; font-size: 8px;">0.7</text></g><g class="tick" transform="translate(0,29.999999999999993)" style="opacity: 1;"><line x2="835" y2="0" style="stroke: rgb(204, 204, 204);"/><text dy=".32em" x="-3" y="0" class="y axis break" style="text-anchor: end; font-size: 8px;">0.8</text></g><g class="tick" transform="translate(0,14.999999999999996)" style="opacity: 1;"><line x2="835" y2="0" style="stroke: rgb(204, 204, 204);"/><text dy=".32em" x="-3" y="0" class="y axis break" style="text-anchor: end; font-size: 8px;">0.9</text></g><g class="tick" transform="translate(0,0)" style="opacity: 1;"><line x2="835" y2="0" style="stroke: rgb(204, 204, 204);"/><text dy=".32em" x="-3" y="0" class="y axis break" style="text-anchor: end; font-size: 8px;">1</text></g><path class="domain" d="M0,0H0V150H0" style="stroke: rgb(51, 51, 51);"/></g><text class="y axis label" dx="0" dy="69" style="font-size: 10px; text-anchor: end;"><tspan x="-35">Expression</tspan><tspan x="-35" dy="12">level</tspan></text><g class="x axis"><g class="tick" transform="translate(18.977272727272727,0)" style="opacity: 1;"><line y2="300" x2="0" class=""/><text dy=".71em" y="303" x="0" style="text-anchor: middle;"/></g><g class="tick" transform="translate(94.88636016845703,0)" style="opacity: 1;"><line y2="300" x2="0" class=""/><text dy=".71em" y="303" x="0" style="text-anchor: middle;"/></g><g class="tick" transform="translate(132.84091186523438,0)" style="opacity: 1;"><line y2="300" x2="0" class=""/><text dy=".71em" y="303" x="0" style="text-anchor: middle;"/></g><g class="tick" transform="translate(170.7954559326172,0)" style="opacity: 1;"><line y2="300" x2="0" class=""/><text dy=".71em" y="303" x="0" style="text-anchor: middle;"/></g><g class="tick" transform="translate(208.75,0)" style="opacity: 1;"><line y2="300" x2="0" class=""/><text dy=".71em" y="303" x="0" style="text-anchor: middle;"/></g><g class="tick" transform="translate(246.7045440673828,0)" style="opacity: 1;"><line y2="300" x2="0"/><text dy=".71em" y="303" x="0" style="text-anchor: middle;"/></g><g class="tick" transform="translate(322.6136474609375,0)" style="opacity: 1;"><line y2="300" x2="0" class=""/><text dy=".71em" y="303" x="0" style="text-anchor: middle;"/></g><g class="tick" transform="translate(284.6590881347656,0)" style="opacity: 1;"><line y2="300" x2="0" class=""/><text dy=".71em" y="303" x="0" style="text-anchor: middle;"/></g><g class="tick" transform="translate(360.56817626953125,0)" style="opacity: 1;"><line y2="300" x2="0"/><text dy=".71em" y="303" x="0" style="text-anchor: middle;"/></g><g class="tick" transform="translate(398.5227355957031,0)" style="opacity: 1;"><line y2="300" x2="0"/><text dy=".71em" y="303" x="0" style="text-anchor: middle;"/></g><g class="tick" transform="translate(436.4772644042969,0)" style="opacity: 1;"><line y2="300" x2="0"/><text dy=".71em" y="303" x="0" style="text-anchor: middle;"/></g><g class="tick" transform="translate(474.43182373046875,0)" style="opacity: 1;"><line y2="300" x2="0"/><text dy=".71em" y="303" x="0" style="text-anchor: middle;"/></g><g class="tick" transform="translate(512.3863525390625,0)" style="opacity: 1;"><line y2="300" x2="0"/><text dy=".71em" y="303" x="0" style="text-anchor: middle;"/></g><g class="tick" transform="translate(550.3408813476562,0)" style="opacity: 1;"><line y2="300" x2="0"/><text dy=".71em" y="303" x="0" style="text-anchor: middle;"/></g><g class="tick" transform="translate(588.2954711914062,0)" style="opacity: 1;"><line y2="300" x2="0"/><text dy=".71em" y="303" x="0" style="text-anchor: middle;"/></g><g class="tick" transform="translate(56.931819915771484,0)" style="opacity: 1;"><line y2="300" x2="0"/><text dy=".71em" y="303" x="0" style="text-anchor: middle;"/></g><g class="tick" transform="translate(626.25,0)" style="opacity: 1;"><line y2="300" x2="0"/><text dy=".71em" y="303" x="0" style="text-anchor: middle;"/></g><g class="tick" transform="translate(664.2045288085938,0)" style="opacity: 1;"><line y2="300" x2="0"/><text dy=".71em" y="303" x="0" style="text-anchor: middle;"/></g><g class="tick" transform="translate(702.1590909090909,0)" style="opacity: 1;"><line y2="300" x2="0"/><text dy=".71em" y="303" x="0" style="text-anchor: middle;"/></g><g class="tick" transform="translate(740.1136363636364,0)" style="opacity: 1;"><line y2="300" x2="0"/><text dy=".71em" y="303" x="0" style="text-anchor: middle;"/></g><g class="tick" transform="translate(778.0681818181818,0)" style="opacity: 1;"><line y2="300" x2="0"/><text dy=".71em" y="303" x="0" style="text-anchor: middle;"/></g><g class="tick" transform="translate(816.0227272727273,0)" style="opacity: 1;"><line y2="300" x2="0"/><text dy=".71em" y="303" x="0" style="text-anchor: middle;"/></g><path class="domain" d="M0,0V0H835V0" style="stroke: none;"/></g><line class="cluster-sep condition" x1="37.95454545454545" x2="37.95454545454545" y1="0" y2="150" style="stroke: rgb(51, 51, 51); stroke-opacity: 0.5; stroke-dasharray: 2, 2; opacity: 0;"/><line class="cluster-sep condition" x1="75.9090909090909" x2="75.9090909090909" y1="0" y2="150" style="stroke: rgb(51, 51, 51); stroke-opacity: 0.5; stroke-dasharray: 2, 2; opacity: 0;"/><line class="cluster-sep condition" x1="113.86363636363636" x2="113.86363636363636" y1="0" y2="150" style="stroke: rgb(51, 51, 51); stroke-opacity: 0.5; stroke-dasharray: 2, 2; opacity: 0;"/><line class="cluster-sep condition" x1="151.8181818181818" x2="151.8181818181818" y1="0" y2="150" style="stroke: rgb(51, 51, 51); stroke-opacity: 0.5; stroke-dasharray: 2, 2; opacity: 0;"/><line class="cluster-sep condition" x1="227.72727272727272" x2="227.72727272727272" y1="0" y2="150" style="stroke: rgb(51, 51, 51); stroke-opacity: 0.5; stroke-dasharray: 2, 2; opacity: 0;"/><line class="cluster-sep condition" x1="569.3181818181818" x2="569.3181818181818" y1="0" y2="150" style="stroke: rgb(51, 51, 51); stroke-opacity: 0.5; stroke-dasharray: 2, 2; opacity: 0;"/><line class="cluster-sep condition" x1="607.2727272727273" x2="607.2727272727273" y1="0" y2="150" style="stroke: rgb(51, 51, 51); stroke-opacity: 0.5; stroke-dasharray: 2, 2; opacity: 0;"/><g class="row LotjaGi4g1v0363100 geneid" data-row="LotjaGi4g1v0363100" id="expat-linegraph-group-LotjaGi4g1v0363100" transform="translate(18.977272727272727,0)"><path class="line" d="M0,149.7C6.325362390866405,149.74999687638288,25.303079704035007,149.97500009761876,37.95454545454545,150S63.25757575757576,149.85,75.9090909090909,149.85S101.2121212121212,149.85,113.86363636363636,149.85S139.16666666666666,150,151.8181818181818,150S177.12129581209913,149.8825393534207,189.77272727272725,149.85S215.07576149599498,149.7070425086319,227.72727272727272,149.7S253.14310467535444,149.68928024887205,265.6818181818182,148.5S290.98800937157387,-0.1999500314912877,303.6363636363636,0S328.9411721307628,149.55002115788756,341.59090909090907,149.7S366.89393939572136,149.8501501500749,379.5454545454545,149.85S404.8497197578742,149.67498779879946,417.5,149.55S442.8034748981844,149.02500263562396,455.45454545454544,149.1S480.75836612735804,149.90000624723422,493.4090909090909,150S518.712170613126,149.72499990238123,531.3636363636364,149.7S556.6666666666666,149.85,569.3181818181818,149.85S594.6212121212121,149.85,607.2727272727273,149.85S632.5757575757576,149.85,645.2272727272727,149.85S670.530303030303,149.85,683.1818181818181,149.85S708.4848484848485,150,721.1363636363636,150S746.4393939393939,149.85,759.090909090909,149.85S790.7196969696969,149.85,797.0454545454545,149.85" id="expat-linegraph-path-LotjaGi4g1v0363100" style="stroke: rgb(51, 51, 51); stroke-width: 3; fill: none;"/><circle class="point" data-condition="0" cx="0" cy="149.7" r="4" style="stroke: rgb(51, 51, 51); stroke-width: 2; fill: rgb(255, 255, 255);"/><circle class="point" data-condition="1" cx="75.9090909090909" cy="149.85" r="4" style="stroke: rgb(51, 51, 51); stroke-width: 2; fill: rgb(255, 255, 255);"/><circle class="point" data-condition="2" cx="113.86363636363636" cy="149.85" r="4" style="stroke: rgb(51, 51, 51); stroke-width: 2; fill: rgb(255, 255, 255);"/><circle class="point" data-condition="3" cx="151.8181818181818" cy="150" r="4" style="stroke: rgb(51, 51, 51); stroke-width: 2; fill: rgb(255, 255, 255);"/><circle class="point" data-condition="4" cx="189.77272727272725" cy="149.85" r="4" style="stroke: rgb(51, 51, 51); stroke-width: 2; fill: rgb(255, 255, 255);"/><circle class="point" data-condition="5" cx="227.72727272727272" cy="149.7" r="4" style="stroke: rgb(51, 51, 51); stroke-width: 2; fill: rgb(255, 255, 255);"/><circle class="point" data-condition="6" cx="303.6363636363636" cy="0" r="4" style="stroke: rgb(51, 51, 51); stroke-width: 2; fill: rgb(255, 255, 255);"/><circle class="point" data-condition="7" cx="265.6818181818182" cy="148.5" r="4" style="stroke: rgb(51, 51, 51); stroke-width: 2; fill: rgb(255, 255, 255);"/><circle class="point" data-condition="8" cx="341.59090909090907" cy="149.7" r="4" style="stroke: rgb(51, 51, 51); stroke-width: 2; fill: rgb(255, 255, 255);"/><circle class="point" data-condition="9" cx="379.5454545454545" cy="149.85" r="4" style="stroke: rgb(51, 51, 51); stroke-width: 2; fill: rgb(255, 255, 255);"/><circle class="point" data-condition="10" cx="417.5" cy="149.55" r="4" style="stroke: rgb(51, 51, 51); stroke-width: 2; fill: rgb(255, 255, 255);"/><circle class="point" data-condition="11" cx="455.45454545454544" cy="149.1" r="4" style="stroke: rgb(51, 51, 51); stroke-width: 2; fill: rgb(255, 255, 255);"/><circle class="point" data-condition="12" cx="493.4090909090909" cy="150" r="4" style="stroke: rgb(51, 51, 51); stroke-width: 2; fill: rgb(255, 255, 255);"/><circle class="point" data-condition="13" cx="531.3636363636364" cy="149.7" r="4" style="stroke: rgb(51, 51, 51); stroke-width: 2; fill: rgb(255, 255, 255);"/><circle class="point" data-condition="14" cx="569.3181818181818" cy="149.85" r="4" style="stroke: rgb(51, 51, 51); stroke-width: 2; fill: rgb(255, 255, 255);"/><circle class="point" data-condition="15" cx="37.95454545454545" cy="150" r="4" style="stroke: rgb(51, 51, 51); stroke-width: 2; fill: rgb(255, 255, 255);"/><circle class="point" data-condition="16" cx="607.2727272727273" cy="149.85" r="4" style="stroke: rgb(51, 51, 51); stroke-width: 2; fill: rgb(255, 255, 255);"/><circle class="point" data-condition="17" cx="645.2272727272727" cy="149.85" r="4" style="stroke: rgb(51, 51, 51); stroke-width: 2; fill: rgb(255, 255, 255);"/><circle class="point" data-condition="18" cx="683.1818181818181" cy="149.85" r="4" style="stroke: rgb(51, 51, 51); stroke-width: 2; fill: rgb(255, 255, 255);"/><circle class="point" data-condition="19" cx="721.1363636363636" cy="150" r="4" style="stroke: rgb(51, 51, 51); stroke-width: 2; fill: rgb(255, 255, 255);"/><circle class="point" data-condition="20" cx="759.090909090909" cy="149.85" r="4" style="stroke: rgb(51, 51, 51); stroke-width: 2; fill: rgb(255, 255, 255);"/><circle class="point" data-condition="21" cx="797.0454545454545" cy="149.85" r="4" style="stroke: rgb(51, 51, 51); stroke-width: 2; fill: rgb(255, 255, 255);"/></g><g class="row LotjaGi3g1v0431800 geneid" data-row="LotjaGi3g1v0431800" id="expat-linegraph-group-LotjaGi3g1v0431800" transform="translate(18.977272727272727,0)"><path class="line" d="M0,147C6.286481996743889,147.49689558297615,25.440292706382458,151.31062443452316,37.95454545454545,150S63.634209316716664,141.20014705128958,75.9090909090909,139.05S101.27885882686115,135.7335514008755,113.86363636363636,136.65S139.21203155883936,143.84377473777462,151.8181818181818,144.6S177.51811078552313,149.20541173376208,189.77272727272725,147S217.97620642568492,118.86812645957255,227.72727272727272,113.55S253.83623649937942,108.6897816651918,265.6818181818182,105.6S293.7882008248324,88.4956807993567,303.6363636363636,93.75S332.01826039545557,140.67110444343473,341.59090909090907,146.1S367.3690142108578,139.20514452012296,379.5454545454545,136.8S411.959890419185,128.52677991770437,417.5,122.24999999999999S443.46594456515845,-2.8191159097378824,455.45454545454544,0S487.2625523779298,133.77678171804038,493.4090909090909,140.1S518.7834588065908,126.10266710976542,531.3636363636364,127.05S556.8090987846733,148.06519844516694,569.3181818181818,149.4S594.649589678487,135.74850965745713,607.2727272727273,135.15S632.5757713138669,135.73681638481173,645.2272727272727,135.75S670.5317416072033,135.5849003630413,683.1818181818181,135.45000000000002S708.5118072657441,135.43338893467362,721.1363636363636,134.85S746.5300819940746,132.61729423056335,759.090909090909,131.55S790.7629707558845,128.92140853487092,797.0454545454545,128.4" id="expat-linegraph-path-LotjaGi3g1v0431800" style="stroke: rgb(51, 51, 51); stroke-width: 3; fill: none;"/><circle class="point" data-condition="0" cx="0" cy="147" r="4" style="stroke: rgb(51, 51, 51); stroke-width: 2; fill: rgb(255, 255, 255);"/><circle class="point" data-condition="1" cx="75.9090909090909" cy="139.05" r="4" style="stroke: rgb(51, 51, 51); stroke-width: 2; fill: rgb(255, 255, 255);"/><circle class="point" data-condition="2" cx="113.86363636363636" cy="136.65" r="4" style="stroke: rgb(51, 51, 51); stroke-width: 2; fill: rgb(255, 255, 255);"/><circle class="point" data-condition="3" cx="151.8181818181818" cy="144.6" r="4" style="stroke: rgb(51, 51, 51); stroke-width: 2; fill: rgb(255, 255, 255);"/><circle class="point" data-condition="4" cx="189.77272727272725" cy="147" r="4" style="stroke: rgb(51, 51, 51); stroke-width: 2; fill: rgb(255, 255, 255);"/><circle class="point" data-condition="5" cx="227.72727272727272" cy="113.55" r="4" style="stroke: rgb(51, 51, 51); stroke-width: 2; fill: rgb(255, 255, 255);"/><circle class="point" data-condition="6" cx="303.6363636363636" cy="93.75" r="4" style="stroke: rgb(51, 51, 51); stroke-width: 2; fill: rgb(255, 255, 255);"/><circle class="point" data-condition="7" cx="265.6818181818182" cy="105.6" r="4" style="stroke: rgb(51, 51, 51); stroke-width: 2; fill: rgb(255, 255, 255);"/><circle class="point" data-condition="8" cx="341.59090909090907" cy="146.1" r="4" style="stroke: rgb(51, 51, 51); stroke-width: 2; fill: rgb(255, 255, 255);"/><circle class="point" data-condition="9" cx="379.5454545454545" cy="136.8" r="4" style="stroke: rgb(51, 51, 51); stroke-width: 2; fill: rgb(255, 255, 255);"/><circle class="point" data-condition="10" cx="417.5" cy="122.24999999999999" r="4" style="stroke: rgb(51, 51, 51); stroke-width: 2; fill: rgb(255, 255, 255);"/><circle class="point" data-condition="11" cx="455.45454545454544" cy="0" r="4" style="stroke: rgb(51, 51, 51); stroke-width: 2; fill: rgb(255, 255, 255);"/><circle class="point" data-condition="12" cx="493.4090909090909" cy="140.1" r="4" style="stroke: rgb(51, 51, 51); stroke-width: 2; fill: rgb(255, 255, 255);"/><circle class="point" data-condition="13" cx="531.3636363636364" cy="127.05" r="4" style="stroke: rgb(51, 51, 51); stroke-width: 2; fill: rgb(255, 255, 255);"/><circle class="point" data-condition="14" cx="569.3181818181818" cy="149.4" r="4" style="stroke: rgb(51, 51, 51); stroke-width: 2; fill: rgb(255, 255, 255);"/><circle class="point" data-condition="15" cx="37.95454545454545" cy="150" r="4" style="stroke: rgb(51, 51, 51); stroke-width: 2; fill: rgb(255, 255, 255);"/><circle class="point" data-condition="16" cx="607.2727272727273" cy="135.15" r="4" style="stroke: rgb(51, 51, 51); stroke-width: 2; fill: rgb(255, 255, 255);"/><circle class="point" data-condition="17" cx="645.2272727272727" cy="135.75" r="4" style="stroke: rgb(51, 51, 51); stroke-width: 2; fill: rgb(255, 255, 255);"/><circle class="point" data-condition="18" cx="683.1818181818181" cy="135.45000000000002" r="4" style="stroke: rgb(51, 51, 51); stroke-width: 2; fill: rgb(255, 255, 255);"/><circle class="point" data-condition="19" cx="721.1363636363636" cy="134.85" r="4" style="stroke: rgb(51, 51, 51); stroke-width: 2; fill: rgb(255, 255, 255);"/><circle class="point" data-condition="20" cx="759.090909090909" cy="131.55" r="4" style="stroke: rgb(51, 51, 51); stroke-width: 2; fill: rgb(255, 255, 255);"/><circle class="point" data-condition="21" cx="797.0454545454545" cy="128.4" r="4" style="stroke: rgb(51, 51, 51); stroke-width: 2; fill: rgb(255, 255, 255);"/></g><g class="row LotjaGi3g1v0431900 geneid" data-row="LotjaGi3g1v0431900" id="expat-linegraph-group-LotjaGi3g1v0431900" transform="translate(18.977272727272727,0)"><path class="line" d="M0,143.54999999999998C6.320243081011206,143.73668944069232,26.715166981291592,152.03390996170123,37.95454545454545,148.05S63.80800187624763,38.13084394492396,75.9090909090909,35.55S101.72639496304207,29.301627597631683,113.86363636363636,31.799999999999994S139.17743322722563,147.3810862089656,151.8181818181818,147.75S177.13886680937827,147.62227837851788,189.77272727272725,147.15S215.1038944332693,0.5959716405795312,227.72727272727272,0S253.0303764780292,0.5695168960592185,265.6818181818182,0.6000000000000005S297.65020518170667,7.633364713377694,303.6363636363636,13.949999999999996S328.94649538634644,149.70034414210863,341.59090909090907,150S366.8939431859956,149.70692641631413,379.5454545454545,149.7S406.1860269823504,149.24010483310212,417.5,145.35S442.84733567898866,110.2526264863592,455.45454545454544,111S485.4717061060428,155.96701451588194,493.4090909090909,149.85S519.2247924387204,54.994641458102436,531.3636363636364,52.5S556.9602490362612,132.34525036043928,569.3181818181818,134.25S594.6282356041634,64.49800733491253,607.2727272727273,64.2S632.5758439634224,63.93305945230542,645.2272727272727,63.900000000000006S670.5975736663162,57.32008159002562,683.1818181818181,56.4S708.6325425577543,59.708948219022524,721.1363636363636,58.35S746.5216389718344,49.16673990218552,759.090909090909,48.14999999999999S790.7218764798798,49.082601947263804,797.0454545454545,49.199999999999996" id="expat-linegraph-path-LotjaGi3g1v0431900" style="stroke: rgb(51, 51, 51); stroke-width: 3; fill: none;"/><circle class="point" data-condition="0" cx="0" cy="143.54999999999998" r="4" style="stroke: rgb(51, 51, 51); stroke-width: 2; fill: rgb(255, 255, 255);"/><circle class="point" data-condition="1" cx="75.9090909090909" cy="35.55" r="4" style="stroke: rgb(51, 51, 51); stroke-width: 2; fill: rgb(255, 255, 255);"/><circle class="point" data-condition="2" cx="113.86363636363636" cy="31.799999999999994" r="4" style="stroke: rgb(51, 51, 51); stroke-width: 2; fill: rgb(255, 255, 255);"/><circle class="point" data-condition="3" cx="151.8181818181818" cy="147.75" r="4" style="stroke: rgb(51, 51, 51); stroke-width: 2; fill: rgb(255, 255, 255);"/><circle class="point" data-condition="4" cx="189.77272727272725" cy="147.15" r="4" style="stroke: rgb(51, 51, 51); stroke-width: 2; fill: rgb(255, 255, 255);"/><circle class="point" data-condition="5" cx="227.72727272727272" cy="0" r="4" style="stroke: rgb(51, 51, 51); stroke-width: 2; fill: rgb(255, 255, 255);"/><circle class="point" data-condition="6" cx="303.6363636363636" cy="13.949999999999996" r="4" style="stroke: rgb(51, 51, 51); stroke-width: 2; fill: rgb(255, 255, 255);"/><circle class="point" data-condition="7" cx="265.6818181818182" cy="0.6000000000000005" r="4" style="stroke: rgb(51, 51, 51); stroke-width: 2; fill: rgb(255, 255, 255);"/><circle class="point" data-condition="8" cx="341.59090909090907" cy="150" r="4" style="stroke: rgb(51, 51, 51); stroke-width: 2; fill: rgb(255, 255, 255);"/><circle class="point" data-condition="9" cx="379.5454545454545" cy="149.7" r="4" style="stroke: rgb(51, 51, 51); stroke-width: 2; fill: rgb(255, 255, 255);"/><circle class="point" data-condition="10" cx="417.5" cy="145.35" r="4" style="stroke: rgb(51, 51, 51); stroke-width: 2; fill: rgb(255, 255, 255);"/><circle class="point" data-condition="11" cx="455.45454545454544" cy="111" r="4" style="stroke: rgb(51, 51, 51); stroke-width: 2; fill: rgb(255, 255, 255);"/><circle class="point" data-condition="12" cx="493.4090909090909" cy="149.85" r="4" style="stroke: rgb(51, 51, 51); stroke-width: 2; fill: rgb(255, 255, 255);"/><circle class="point" data-condition="13" cx="531.3636363636364" cy="52.5" r="4" style="stroke: rgb(51, 51, 51); stroke-width: 2; fill: rgb(255, 255, 255);"/><circle class="point" data-condition="14" cx="569.3181818181818" cy="134.25" r="4" style="stroke: rgb(51, 51, 51); stroke-width: 2; fill: rgb(255, 255, 255);"/><circle class="point" data-condition="15" cx="37.95454545454545" cy="148.05" r="4" style="stroke: rgb(51, 51, 51); stroke-width: 2; fill: rgb(255, 255, 255);"/><circle class="point" data-condition="16" cx="607.2727272727273" cy="64.2" r="4" style="stroke: rgb(51, 51, 51); stroke-width: 2; fill: rgb(255, 255, 255);"/><circle class="point" data-condition="17" cx="645.2272727272727" cy="63.900000000000006" r="4" style="stroke: rgb(51, 51, 51); stroke-width: 2; fill: rgb(255, 255, 255);"/><circle class="point" data-condition="18" cx="683.1818181818181" cy="56.4" r="4" style="stroke: rgb(51, 51, 51); stroke-width: 2; fill: rgb(255, 255, 255);"/><circle class="point" data-condition="19" cx="721.1363636363636" cy="58.35" r="4" style="stroke: rgb(51, 51, 51); stroke-width: 2; fill: rgb(255, 255, 255);"/><circle class="point" data-condition="20" cx="759.090909090909" cy="48.14999999999999" r="4" style="stroke: rgb(51, 51, 51); stroke-width: 2; fill: rgb(255, 255, 255);"/><circle class="point" data-condition="21" cx="797.0454545454545" cy="49.199999999999996" r="4" style="stroke: rgb(51, 51, 51); stroke-width: 2; fill: rgb(255, 255, 255);"/></g><g class="row LotjaGi3g1v0431700 geneid" data-row="LotjaGi3g1v0431700" id="expat-linegraph-group-LotjaGi3g1v0431700" transform="translate(18.977272727272727,0)"><path class="line" d="M0,0C5.426562024678908,2.20896818226151,29.253665147043634,9.58706550297497,37.95454545454545,15.449999999999998S63.32023849421389,50.26182662534293,75.9090909090909,51.15S101.54054349392425,46.88824000458761,113.86363636363636,48.89999999999999S139.4656236133921,126.62831243820641,151.8181818181818,128.55S177.44835402072545,133.40793896221257,189.77272727272725,131.4S216.8972457031886,46.591482370124474,227.72727272727272,42.150000000000006S253.20488076693047,35.27412890334787,265.6818181818182,36.75S299.6928216854647,63.58994388901149,303.6363636363636,69.44999999999999S328.946503491528,149.25017328202262,341.59090909090907,149.55S366.8939394078669,149.84958023209967,379.5454545454545,149.85S404.85026302771155,150.1499783301271,417.5,150S442.8416311059684,146.9477597159801,455.45454545454544,146.25S483.44009423924683,144.8212684914414,493.4090909090909,139.65S524.2846957657945,55.48075825378579,531.3636363636364,49.199999999999996S556.819714696574,73.6830639066306,569.3181818181818,72.3S595.6429702398208,44.24714355166987,607.2727272727273,40.800000000000004S632.6582594539863,48.781684134206195,645.2272727272727,49.8S670.5636103212473,47.5982887631359,683.1818181818181,46.94999999999999S708.4857621877225,46.00751228256104,721.1363636363636,45.900000000000006S746.5250401374593,43.812590292482625,759.090909090909,44.85000000000001S792.2510135421122,63.59042310242251,797.0454545454545,66.3" id="expat-linegraph-path-LotjaGi3g1v0431700" style="stroke: rgb(51, 51, 51); stroke-width: 3; fill: none;"/><circle class="point" data-condition="0" cx="0" cy="0" r="4" style="stroke: rgb(51, 51, 51); stroke-width: 2; fill: rgb(255, 255, 255);"/><circle class="point" data-condition="1" cx="75.9090909090909" cy="51.15" r="4" style="stroke: rgb(51, 51, 51); stroke-width: 2; fill: rgb(255, 255, 255);"/><circle class="point" data-condition="2" cx="113.86363636363636" cy="48.89999999999999" r="4" style="stroke: rgb(51, 51, 51); stroke-width: 2; fill: rgb(255, 255, 255);"/><circle class="point" data-condition="3" cx="151.8181818181818" cy="128.55" r="4" style="stroke: rgb(51, 51, 51); stroke-width: 2; fill: rgb(255, 255, 255);"/><circle class="point" data-condition="4" cx="189.77272727272725" cy="131.4" r="4" style="stroke: rgb(51, 51, 51); stroke-width: 2; fill: rgb(255, 255, 255);"/><circle class="point" data-condition="5" cx="227.72727272727272" cy="42.150000000000006" r="4" style="stroke: rgb(51, 51, 51); stroke-width: 2; fill: rgb(255, 255, 255);"/><circle class="point" data-condition="6" cx="303.6363636363636" cy="69.44999999999999" r="4" style="stroke: rgb(51, 51, 51); stroke-width: 2; fill: rgb(255, 255, 255);"/><circle class="point" data-condition="7" cx="265.6818181818182" cy="36.75" r="4" style="stroke: rgb(51, 51, 51); stroke-width: 2; fill: rgb(255, 255, 255);"/><circle class="point" data-condition="8" cx="341.59090909090907" cy="149.55" r="4" style="stroke: rgb(51, 51, 51); stroke-width: 2; fill: rgb(255, 255, 255);"/><circle class="point" data-condition="9" cx="379.5454545454545" cy="149.85" r="4" style="stroke: rgb(51, 51, 51); stroke-width: 2; fill: rgb(255, 255, 255);"/><circle class="point" data-condition="10" cx="417.5" cy="150" r="4" style="stroke: rgb(51, 51, 51); stroke-width: 2; fill: rgb(255, 255, 255);"/><circle class="point" data-condition="11" cx="455.45454545454544" cy="146.25" r="4" style="stroke: rgb(51, 51, 51); stroke-width: 2; fill: rgb(255, 255, 255);"/><circle class="point" data-condition="12" cx="493.4090909090909" cy="139.65" r="4" style="stroke: rgb(51, 51, 51); stroke-width: 2; fill: rgb(255, 255, 255);"/><circle class="point" data-condition="13" cx="531.3636363636364" cy="49.199999999999996" r="4" style="stroke: rgb(51, 51, 51); stroke-width: 2; fill: rgb(255, 255, 255);"/><circle class="point" data-condition="14" cx="569.3181818181818" cy="72.3" r="4" style="stroke: rgb(51, 51, 51); stroke-width: 2; fill: rgb(255, 255, 255);"/><circle class="point" data-condition="15" cx="37.95454545454545" cy="15.449999999999998" r="4" style="stroke: rgb(51, 51, 51); stroke-width: 2; fill: rgb(255, 255, 255);"/><circle class="point" data-condition="16" cx="607.2727272727273" cy="40.800000000000004" r="4" style="stroke: rgb(51, 51, 51); stroke-width: 2; fill: rgb(255, 255, 255);"/><circle class="point" data-condition="17" cx="645.2272727272727" cy="49.8" r="4" style="stroke: rgb(51, 51, 51); stroke-width: 2; fill: rgb(255, 255, 255);"/><circle class="point" data-condition="18" cx="683.1818181818181" cy="46.94999999999999" r="4" style="stroke: rgb(51, 51, 51); stroke-width: 2; fill: rgb(255, 255, 255);"/><circle class="point" data-condition="19" cx="721.1363636363636" cy="45.900000000000006" r="4" style="stroke: rgb(51, 51, 51); stroke-width: 2; fill: rgb(255, 255, 255);"/><circle class="point" data-condition="20" cx="759.090909090909" cy="44.85000000000001" r="4" style="stroke: rgb(51, 51, 51); stroke-width: 2; fill: rgb(255, 255, 255);"/><circle class="point" data-condition="21" cx="797.0454545454545" cy="66.3" r="4" style="stroke: rgb(51, 51, 51); stroke-width: 2; fill: rgb(255, 255, 255);"/></g><g class="row LotjaGi1g1v0463600 geneid" data-row="LotjaGi1g1v0463600" id="expat-linegraph-group-LotjaGi1g1v0463600" transform="translate(18.977272727272727,0)"><path class="line" d="M0,0C2.1713114219114216,3.003430769230769,35.375112122474846,47.402916170159884,37.95454545454545,52.5S63.259349903455245,149.85019183639815,75.9090909090909,150S101.21212526052747,149.85715670712028,113.86363636363636,149.85S139.16844485981707,145.49997891723092,151.8181818181818,145.35S177.1715974827149,149.746813955584,189.77272727272725,148.95S215.34061521668752,142.36127051741613,227.72727272727272,140.55S253.14781360399013,139.0636218803801,265.6818181818182,137.85S291.00265721363854,132.72566862712281,303.6363636363636,133.2S329.50030738185455,138.09581470973237,341.59090909090907,140.7S366.89472976372167,149.6499937527658,379.5454545454545,149.55S405.5326540554817,142.96141391356056,417.5,140.1S442.803079704035,131.42499990238124,455.45454545454544,131.4S481.20591950485783,137.61093702605092,493.4090909090909,139.95000000000002S519.2153710626833,148.42257208131375,531.3636363636364,145.95S556.6667160676714,124.47500009761876,569.3181818181818,124.5S594.7957131334985,144.6244487140031,607.2727272727273,146.1S632.5766602743464,147.49313705034334,645.2272727272727,147.6S670.530303030303,147.75,683.1818181818181,147.75S708.4848484848485,147.6,721.1363636363636,147.6S746.4393939393939,147.6,759.090909090909,147.6S790.8073864606067,143.83960328191608,797.0454545454545,143.1" id="expat-linegraph-path-LotjaGi1g1v0463600" style="stroke: rgb(51, 51, 51); stroke-width: 3; fill: none;"/><circle class="point" data-condition="0" cx="0" cy="0" r="4" style="stroke: rgb(51, 51, 51); stroke-width: 2; fill: rgb(255, 255, 255);"/><circle class="point" data-condition="1" cx="75.9090909090909" cy="150" r="4" style="stroke: rgb(51, 51, 51); stroke-width: 2; fill: rgb(255, 255, 255);"/><circle class="point" data-condition="2" cx="113.86363636363636" cy="149.85" r="4" style="stroke: rgb(51, 51, 51); stroke-width: 2; fill: rgb(255, 255, 255);"/><circle class="point" data-condition="3" cx="151.8181818181818" cy="145.35" r="4" style="stroke: rgb(51, 51, 51); stroke-width: 2; fill: rgb(255, 255, 255);"/><circle class="point" data-condition="4" cx="189.77272727272725" cy="148.95" r="4" style="stroke: rgb(51, 51, 51); stroke-width: 2; fill: rgb(255, 255, 255);"/><circle class="point" data-condition="5" cx="227.72727272727272" cy="140.55" r="4" style="stroke: rgb(51, 51, 51); stroke-width: 2; fill: rgb(255, 255, 255);"/><circle class="point" data-condition="6" cx="303.6363636363636" cy="133.2" r="4" style="stroke: rgb(51, 51, 51); stroke-width: 2; fill: rgb(255, 255, 255);"/><circle class="point" data-condition="7" cx="265.6818181818182" cy="137.85" r="4" style="stroke: rgb(51, 51, 51); stroke-width: 2; fill: rgb(255, 255, 255);"/><circle class="point" data-condition="8" cx="341.59090909090907" cy="140.7" r="4" style="stroke: rgb(51, 51, 51); stroke-width: 2; fill: rgb(255, 255, 255);"/><circle class="point" data-condition="9" cx="379.5454545454545" cy="149.55" r="4" style="stroke: rgb(51, 51, 51); stroke-width: 2; fill: rgb(255, 255, 255);"/><circle class="point" data-condition="10" cx="417.5" cy="140.1" r="4" style="stroke: rgb(51, 51, 51); stroke-width: 2; fill: rgb(255, 255, 255);"/><circle class="point" data-condition="11" cx="455.45454545454544" cy="131.4" r="4" style="stroke: rgb(51, 51, 51); stroke-width: 2; fill: rgb(255, 255, 255);"/><circle class="point" data-condition="12" cx="493.4090909090909" cy="139.95000000000002" r="4" style="stroke: rgb(51, 51, 51); stroke-width: 2; fill: rgb(255, 255, 255);"/><circle class="point" data-condition="13" cx="531.3636363636364" cy="145.95" r="4" style="stroke: rgb(51, 51, 51); stroke-width: 2; fill: rgb(255, 255, 255);"/><circle class="point" data-condition="14" cx="569.3181818181818" cy="124.5" r="4" style="stroke: rgb(51, 51, 51); stroke-width: 2; fill: rgb(255, 255, 255);"/><circle class="point" data-condition="15" cx="37.95454545454545" cy="52.5" r="4" style="stroke: rgb(51, 51, 51); stroke-width: 2; fill: rgb(255, 255, 255);"/><circle class="point" data-condition="16" cx="607.2727272727273" cy="146.1" r="4" style="stroke: rgb(51, 51, 51); stroke-width: 2; fill: rgb(255, 255, 255);"/><circle class="point" data-condition="17" cx="645.2272727272727" cy="147.6" r="4" style="stroke: rgb(51, 51, 51); stroke-width: 2; fill: rgb(255, 255, 255);"/><circle class="point" data-condition="18" cx="683.1818181818181" cy="147.75" r="4" style="stroke: rgb(51, 51, 51); stroke-width: 2; fill: rgb(255, 255, 255);"/><circle class="point" data-condition="19" cx="721.1363636363636" cy="147.6" r="4" style="stroke: rgb(51, 51, 51); stroke-width: 2; fill: rgb(255, 255, 255);"/><circle class="point" data-condition="20" cx="759.090909090909" cy="147.6" r="4" style="stroke: rgb(51, 51, 51); stroke-width: 2; fill: rgb(255, 255, 255);"/><circle class="point" data-condition="21" cx="797.0454545454545" cy="143.1" r="4" style="stroke: rgb(51, 51, 51); stroke-width: 2; fill: rgb(255, 255, 255);"/></g></g></svg>